<svg xmlns="http://www.w3.org/2000/svg" width="25.035" height="25.035" viewBox="0 0 25.035 25.035">
  <path id="instagram-brands" d="M12.445,37.924a6.419,6.419,0,1,0,6.417,6.419A6.408,6.408,0,0,0,12.445,37.924Zm0,10.591a4.173,4.173,0,1,1,4.172-4.173,4.18,4.18,0,0,1-4.172,4.173Zm8.176-10.854a1.5,1.5,0,1,1-1.5-1.5A1.493,1.493,0,0,1,20.621,37.661Zm4.25,1.519a7.41,7.41,0,0,0-2.022-5.245,7.455,7.455,0,0,0-5.244-2.022c-2.066-.117-8.26-.117-10.327,0A7.444,7.444,0,0,0,2.035,33.93,7.434,7.434,0,0,0,.013,39.175C-.1,41.242-.1,47.437.013,49.5a7.41,7.41,0,0,0,2.022,5.245,7.464,7.464,0,0,0,5.244,2.022c2.066.117,8.26.117,10.327,0a7.406,7.406,0,0,0,5.244-2.022A7.458,7.458,0,0,0,24.872,49.5C24.989,47.437,24.989,41.248,24.872,39.181ZM22.2,51.722a4.224,4.224,0,0,1-2.379,2.38c-1.648.654-5.557.5-7.378.5s-5.736.145-7.378-.5a4.224,4.224,0,0,1-2.379-2.38c-.653-1.648-.5-5.558-.5-7.379s-.145-5.737.5-7.379a4.224,4.224,0,0,1,2.379-2.38c1.648-.654,5.557-.5,7.378-.5s5.736-.145,7.378.5a4.224,4.224,0,0,1,2.379,2.38c.653,1.648.5,5.558.5,7.379S22.855,50.079,22.2,51.722Z" transform="translate(0.075 -31.825)"/>
</svg>
