<svg xmlns="http://www.w3.org/2000/svg" width="25.035" height="25.035" viewBox="0 0 25.035 25.035">
  <path id="line-brands" d="M15.2,41.622V45.6a.177.177,0,0,1-.179.179h-.637a.185.185,0,0,1-.145-.073l-1.822-2.459V45.6a.177.177,0,0,1-.179.179h-.637a.177.177,0,0,1-.179-.179V41.628a.177.177,0,0,1,.179-.179h.631a.169.169,0,0,1,.145.078L14.2,43.986V41.628a.177.177,0,0,1,.179-.179h.637a.177.177,0,0,1,.184.173Zm-4.582-.179H9.986a.177.177,0,0,0-.179.179V45.6a.177.177,0,0,0,.179.179h.637A.177.177,0,0,0,10.8,45.6V41.622A.18.18,0,0,0,10.623,41.444Zm-1.537,3.33H7.348V41.622a.177.177,0,0,0-.179-.179H6.532a.177.177,0,0,0-.179.179V45.6a.164.164,0,0,0,.05.123.189.189,0,0,0,.123.05H9.08a.177.177,0,0,0,.179-.179v-.637a.179.179,0,0,0-.173-.179Zm9.472-3.33H16a.18.18,0,0,0-.179.179V45.6a.18.18,0,0,0,.179.179h2.554a.177.177,0,0,0,.179-.179v-.637a.177.177,0,0,0-.179-.179H16.82v-.671h1.738a.177.177,0,0,0,.179-.179v-.643a.177.177,0,0,0-.179-.179H16.82v-.671h1.738a.177.177,0,0,0,.179-.179v-.637A.188.188,0,0,0,18.558,41.444Zm6.477-4.878V52.508a4.552,4.552,0,0,1-4.565,4.526H4.526A4.555,4.555,0,0,1,0,52.469V36.526A4.555,4.555,0,0,1,4.565,32H20.508A4.552,4.552,0,0,1,25.034,36.565Zm-3.442,6.851c0-4.079-4.09-7.4-9.114-7.4s-9.114,3.319-9.114,7.4c0,3.655,3.241,6.717,7.622,7.3,1.067.229.944.62.7,2.056-.039.229-.184.9.788.492a29.454,29.454,0,0,0,7.164-5.292A6.6,6.6,0,0,0,21.592,43.416Z" transform="translate(0 -32)"/>
</svg>
