<svg id="logo" xmlns="http://www.w3.org/2000/svg" width="140.361" height="32.168" viewBox="0 0 140.361 32.168">
  <g id="Group_298" data-name="Group 298" transform="translate(9.126 26.514)">
    <path id="Path_534" data-name="Path 534" d="M1176.125,133.622l-1.829,3.522v2h-.906v-2l-1.837-3.522h1.01l1.272,2.7,1.272-2.7Z" transform="translate(-1171.553 -133.55)" fill="#fff"/>
    <path id="Path_535" data-name="Path 535" d="M1203.271,133.76a2.66,2.66,0,0,1,1.022,1.006,3.029,3.029,0,0,1,0,2.914,2.649,2.649,0,0,1-1.022,1.01,2.981,2.981,0,0,1-2.847,0,2.677,2.677,0,0,1-1.026-1.01,3,3,0,0,1,0-2.914,2.688,2.688,0,0,1,1.026-1.006,2.979,2.979,0,0,1,2.847,0Zm-2.405.711a1.724,1.724,0,0,0-.672.7,2.188,2.188,0,0,0-.243,1.049,2.214,2.214,0,0,0,.243,1.054,1.744,1.744,0,0,0,.672.708,2.035,2.035,0,0,0,1.956,0,1.751,1.751,0,0,0,.672-.708,2.222,2.222,0,0,0,.242-1.054,2.2,2.2,0,0,0-.242-1.049,1.731,1.731,0,0,0-.672-.7,2.066,2.066,0,0,0-1.956,0Z" transform="translate(-1190.206 -133.398)" fill="#fff"/>
    <path id="Path_536" data-name="Path 536" d="M1236.19,133.622v5.526h-.906v-2.441h-2.6v2.441h-.907v-5.526h.907v2.385h2.6v-2.385Z" transform="translate(-1212.451 -133.55)" fill="#fff"/>
    <path id="Path_537" data-name="Path 537" d="M1264.339,133.622v3.983a1.54,1.54,0,0,1-.449,1.169,1.838,1.838,0,0,1-2.361,0,1.54,1.54,0,0,1-.45-1.169h.915a.908.908,0,0,0,.186.58.758.758,0,0,0,1.062,0,.869.869,0,0,0,.183-.576v-3.983Z" transform="translate(-1232.402 -133.55)" fill="#fff"/>
    <path id="Path_538" data-name="Path 538" d="M1289.545,133.622v5.526h-.907v-5.526Z" transform="translate(-1251.132 -133.55)" fill="#fff"/>
    <path id="Path_539" data-name="Path 539" d="M1332.458,133.622l-1.829,3.522v2h-.907v-2l-1.837-3.522h1.01l1.273,2.7,1.272-2.7Z" transform="translate(-1277.81 -133.55)" fill="#fff"/>
    <path id="Path_540" data-name="Path 540" d="M1357.287,138h-2.314l-.4,1.129h-.946l1.98-5.534h1.05l1.979,5.534h-.954Zm-.246-.708-.906-2.6-.915,2.6Z" transform="translate(-1295.307 -133.533)" fill="#fff"/>
    <path id="Path_541" data-name="Path 541" d="M1390.478,133.622v5.526h-.906v-3.785l-1.686,3.785h-.628l-1.694-3.785v3.785h-.907v-5.526h.978l1.94,4.333,1.933-4.333Z" transform="translate(-1316.397 -133.55)" fill="#fff"/>
    <path id="Path_542" data-name="Path 542" d="M1421.517,138H1419.2l-.4,1.129h-.946l1.98-5.534h1.05l1.979,5.534h-.954Zm-.247-.708-.906-2.6-.914,2.6Z" transform="translate(-1338.963 -133.533)" fill="#fff"/>
    <path id="Path_543" data-name="Path 543" d="M1454.353,133.622v5.526h-.906v-3.785l-1.686,3.785h-.628l-1.693-3.785v3.785h-.907v-5.526h.978l1.94,4.333,1.932-4.333Z" transform="translate(-1359.813 -133.55)" fill="#fff"/>
    <path id="Path_544" data-name="Path 544" d="M1486.083,133.76a2.661,2.661,0,0,1,1.021,1.006,3.025,3.025,0,0,1,0,2.914,2.649,2.649,0,0,1-1.021,1.01,2.981,2.981,0,0,1-2.847,0,2.68,2.68,0,0,1-1.026-1.01,3,3,0,0,1,0-2.914,2.692,2.692,0,0,1,1.026-1.006,2.979,2.979,0,0,1,2.847,0Zm-2.405.711a1.725,1.725,0,0,0-.672.7,2.186,2.186,0,0,0-.243,1.049,2.213,2.213,0,0,0,.243,1.054,1.745,1.745,0,0,0,.672.708,2.035,2.035,0,0,0,1.956,0,1.749,1.749,0,0,0,.672-.708,2.222,2.222,0,0,0,.242-1.054,2.2,2.2,0,0,0-.242-1.049,1.729,1.729,0,0,0-.672-.7,2.066,2.066,0,0,0-1.956,0Z" transform="translate(-1382.48 -133.398)" fill="#fff"/>
    <path id="Path_545" data-name="Path 545" d="M1516.315,133.622v.708h-1.471v4.818h-.906V134.33h-1.479v-.708Z" transform="translate(-1403.277 -133.55)" fill="#fff"/>
    <path id="Path_546" data-name="Path 546" d="M1541.783,133.76a2.661,2.661,0,0,1,1.022,1.006,3.026,3.026,0,0,1,0,2.914,2.649,2.649,0,0,1-1.022,1.01,2.981,2.981,0,0,1-2.847,0,2.681,2.681,0,0,1-1.026-1.01,3,3,0,0,1,0-2.914,2.693,2.693,0,0,1,1.026-1.006,2.979,2.979,0,0,1,2.847,0Zm-2.405.711a1.727,1.727,0,0,0-.672.7,2.19,2.19,0,0,0-.242,1.049,2.217,2.217,0,0,0,.242,1.054,1.748,1.748,0,0,0,.672.708,2.035,2.035,0,0,0,1.956,0,1.749,1.749,0,0,0,.672-.708,2.215,2.215,0,0,0,.242-1.054,2.189,2.189,0,0,0-.242-1.049,1.728,1.728,0,0,0-.672-.7,2.066,2.066,0,0,0-1.956,0Z" transform="translate(-1420.305 -133.398)" fill="#fff"/>
  </g>
  <g id="Group_299" data-name="Group 299">
    <path id="Path_547" data-name="Path 547" d="M1156.485,51.393v2.453h-5.1v16.7h-3.143v-16.7h-5.127V51.393Z" transform="translate(-1143.116 -51.145)" fill="#fff"/>
    <path id="Path_548" data-name="Path 548" d="M1216.479,51.393V70.55h-3.142V62.088h-9.014V70.55h-3.142V51.393h3.142v8.269h9.014V51.393Z" transform="translate(-1182.547 -51.145)" fill="#fff"/>
    <path id="Path_549" data-name="Path 549" d="M1271.835,53.76v5.816h6.615V62h-6.615v6.036h7.443v2.453h-10.585V51.307h10.585V53.76Z" transform="translate(-1228.462 -51.087)" fill="#fff"/>
    <path id="Path_550" data-name="Path 550" d="M1347.565,67.324a5.736,5.736,0,0,1-2.3,2.095,7.512,7.512,0,0,1-3.555.8,7.826,7.826,0,0,1-4.824-1.406,4.587,4.587,0,0,1-1.874-3.887h3.362a2.934,2.934,0,0,0,.938,2.012,3.472,3.472,0,0,0,2.4.744,3.687,3.687,0,0,0,2.549-.827,2.72,2.72,0,0,0,.923-2.122,2.243,2.243,0,0,0-.565-1.613,3.713,3.713,0,0,0-1.419-.909,21.559,21.559,0,0,0-2.343-.675,20,20,0,0,1-3.032-.924,4.868,4.868,0,0,1-1.985-1.544,4.57,4.57,0,0,1-.827-2.88,5.231,5.231,0,0,1,.827-2.922,5.4,5.4,0,0,1,2.316-1.957,8.055,8.055,0,0,1,3.417-.689,7.244,7.244,0,0,1,4.534,1.323,5.064,5.064,0,0,1,1.916,3.832h-3.473a2.776,2.776,0,0,0-.937-1.847,3.17,3.17,0,0,0-2.2-.745,3.559,3.559,0,0,0-2.316.717,2.573,2.573,0,0,0-.882,2.122,2.341,2.341,0,0,0,.565,1.64,3.55,3.55,0,0,0,1.42.937,21.016,21.016,0,0,0,2.37.675,20.3,20.3,0,0,1,3,.923,4.858,4.858,0,0,1,1.971,1.516,4.5,4.5,0,0,1,.813,2.853A5.227,5.227,0,0,1,1347.565,67.324Z" transform="translate(-1273.535 -50.62)" fill="#fff"/>
    <path id="Path_551" data-name="Path 551" d="M1409.66,51.393V70.55h-3.142V62.088H1397.5V70.55h-3.142V51.393h3.142v8.269h9.014V51.393Z" transform="translate(-1313.875 -51.145)" fill="#fff"/>
    <path id="Path_552" data-name="Path 552" d="M1474.975,51.874a9.228,9.228,0,0,1,3.542,3.487,10.493,10.493,0,0,1,0,10.1,9.194,9.194,0,0,1-3.542,3.5,10.33,10.33,0,0,1-9.868,0,9.283,9.283,0,0,1-3.556-3.5,10.4,10.4,0,0,1,0-10.1,9.318,9.318,0,0,1,3.556-3.487,10.332,10.332,0,0,1,9.868,0Zm-8.338,2.467a5.989,5.989,0,0,0-2.329,2.426,7.6,7.6,0,0,0-.841,3.638,7.677,7.677,0,0,0,.841,3.652,6.061,6.061,0,0,0,2.329,2.453,7.056,7.056,0,0,0,6.781,0,6.063,6.063,0,0,0,2.329-2.453,7.677,7.677,0,0,0,.841-3.652,7.6,7.6,0,0,0-.841-3.638,5.991,5.991,0,0,0-2.329-2.426,7.154,7.154,0,0,0-6.781,0Z" transform="translate(-1358.692 -50.62)" fill="#fff"/>
    <path id="Path_553" data-name="Path 553" d="M1542.58,62.777V70.55h-3.142V51.393h6.615a8.355,8.355,0,0,1,3.735.758,5.277,5.277,0,0,1,2.288,2.053,5.63,5.63,0,0,1,.758,2.894,5.79,5.79,0,0,1-.689,2.757,5.167,5.167,0,0,1-2.205,2.109,8.184,8.184,0,0,1-3.887.813Zm6.147-3.308a3.145,3.145,0,0,0,.882-2.371,3.184,3.184,0,0,0-.882-2.4,3.711,3.711,0,0,0-2.674-.854h-3.473v6.478h3.473A3.709,3.709,0,0,0,1548.727,59.469Z" transform="translate(-1412.473 -51.145)" fill="#fff"/>
  </g>
</svg>
