<svg xmlns="http://www.w3.org/2000/svg" width="30.041" height="24.4" viewBox="0 0 30.041 24.4">
  <path id="twitter-brands" d="M26.954,54.163c.019.267.019.534.019.8,0,8.139-6.2,17.518-17.518,17.518A17.4,17.4,0,0,1,0,69.718a12.735,12.735,0,0,0,1.487.076,12.331,12.331,0,0,0,7.644-2.631,6.168,6.168,0,0,1-5.757-4.27,7.765,7.765,0,0,0,1.163.1,6.511,6.511,0,0,0,1.62-.21A6.158,6.158,0,0,1,1.22,56.736V56.66A6.2,6.2,0,0,0,4,57.442,6.166,6.166,0,0,1,2.1,49.207a17.5,17.5,0,0,0,12.7,6.443,6.951,6.951,0,0,1-.152-1.411A6.163,6.163,0,0,1,25.3,50.026,12.122,12.122,0,0,0,29.2,48.54,6.14,6.14,0,0,1,26.5,51.933a12.343,12.343,0,0,0,3.545-.953A13.235,13.235,0,0,1,26.954,54.163Z" transform="translate(0 -48.082)"/>
</svg>
